<svg xmlns="http://www.w3.org/2000/svg" xml:space="preserve" width="150" height="25" viewBox="0 0 1500 249.74" class="w-auto"><path fill="white" d="M354.66 198.48h-23.34V51.26h90.01v20.82h-66.67v44.58h64.56v20.82h-64.56v61zM440.36 69.77c-2.73-2.66-4.1-5.89-4.1-9.67 0-3.78 1.37-7.01 4.1-9.67 2.73-2.66 5.99-4 9.78-4 3.78 0 7.01 1.34 9.67 4s4 5.89 4 9.67c0 3.79-1.34 7.01-4 9.67-2.66 2.67-5.89 4-9.67 4-3.78-.01-7.04-1.34-9.78-4zm20.72 128.71H439V91.01h22.08v107.47zM530.48 191.74 563.5 91H586l-37.65 107.47h-37.43L473.27 91.01h23.98l33.23 100.73zM643.62 88.91c17.25 0 31.26 6.17 42.06 18.51 10.8 12.34 15.21 27.27 13.25 44.8h-88.96c1.54 8.69 5.54 15.74 11.99 21.13 6.45 5.4 14.23 8.1 23.34 8.1 7.01 0 13.28-1.72 18.82-5.15 5.54-3.43 9.85-8.1 12.93-13.99l18.51 8.2c-4.77 9.12-11.57 16.4-20.4 21.87-8.83 5.47-19 8.2-30.49 8.2-16.12 0-29.65-5.33-40.59-15.98-10.94-10.65-16.4-23.9-16.4-39.75 0-15.84 5.36-29.13 16.09-39.85 10.72-10.73 24-16.09 39.85-16.09zm0 19.13c-8.13 0-15.18 2.49-21.14 7.46-5.96 4.98-9.92 11.46-11.88 19.45h66.03c-1.82-7.99-5.72-14.48-11.67-19.45-5.96-4.96-13.07-7.46-21.34-7.46zM847.61 88.91c11.07 0 20.15 4.28 27.23 12.83 7.08 8.55 10.62 19.42 10.62 32.6v64.14h-22.08V137.7c0-8.27-2.28-15.11-6.83-20.5-4.56-5.4-10.2-8.1-16.93-8.1-7.57 0-13.77 2.7-18.61 8.1-4.84 5.4-7.26 12.23-7.26 20.5v60.78h-22.08V137.7c0-8.27-2.24-15.11-6.73-20.5-4.49-5.4-10.09-8.1-16.82-8.1-7.57 0-13.77 2.7-18.61 8.1-4.84 5.4-7.26 12.23-7.26 20.5v60.78h-22.08V91.01h22.08v26.29c2.94-8.83 7.39-15.77 13.35-20.82 5.96-5.05 12.93-7.57 20.93-7.57 8.55 0 15.95 2.7 22.19 8.1 6.24 5.4 10.62 12.65 13.14 21.77 2.53-9.11 6.97-16.37 13.36-21.77 6.37-5.4 13.84-8.1 22.39-8.1zM953.39 88.91c12.9 0 23.41 3.37 31.54 10.09 8.13 6.73 12.2 16.4 12.2 29.02v70.45h-22.09v-28.6c-6.59 20.47-19.84 30.7-39.74 30.7-9.25 0-16.97-2.77-23.13-8.31-6.17-5.54-9.25-12.79-9.25-21.77 0-10.51 3.71-18.4 11.15-23.66 7.43-5.26 16.89-8.52 28.39-9.78l20.82-2.1c7.85-.7 11.77-4.21 11.77-10.51 0-5.19-2-9.32-5.99-12.41-3.99-3.08-9.22-4.63-15.66-4.63-6.59 0-12.16 1.68-16.72 5.05-4.56 3.36-7.46 8.27-8.73 14.72l-21.87-5.26c1.96-10.09 7.22-18.12 15.77-24.08 8.55-5.94 19.06-8.92 31.54-8.92zm-10.93 93.79c9.11 0 16.82-3.05 23.13-9.15 6.31-6.1 9.46-13.21 9.46-21.35v-5.89c-1.68 2.81-5.74 4.56-12.19 5.26l-20.4 2.52c-5.33.7-9.57 2.28-12.72 4.73-3.15 2.46-4.73 5.78-4.73 9.99s1.58 7.57 4.73 10.09c3.15 2.54 7.38 3.8 12.72 3.8zM1081.47 88.91c12.2 0 22.15 4.28 29.86 12.83 7.71 8.55 11.56 19.42 11.56 32.6v64.14h-22.08V137.7c0-8.27-2.67-15.11-7.99-20.5-5.33-5.4-11.92-8.1-19.77-8.1-8.83 0-16.05 2.7-21.66 8.1-5.61 5.4-8.41 12.23-8.41 20.5v60.78h-22.08V91.01h22.08v27.76c2.95-9.26 7.82-16.54 14.62-21.87 6.79-5.33 14.75-7.99 23.87-7.99zM1191.03 88.91c12.9 0 23.41 3.37 31.55 10.09 8.13 6.73 12.2 16.4 12.2 29.02v70.45h-22.08v-28.6c-6.59 20.47-19.84 30.7-39.75 30.7-9.26 0-16.96-2.77-23.13-8.31-6.17-5.54-9.25-12.79-9.25-21.77 0-10.51 3.71-18.4 11.14-23.66 7.43-5.26 16.89-8.52 28.39-9.78l20.82-2.1c7.85-.7 11.77-4.21 11.77-10.51 0-5.19-2-9.32-5.99-12.41-4-3.08-9.22-4.63-15.67-4.63-6.59 0-12.16 1.68-16.72 5.05-4.56 3.36-7.47 8.27-8.73 14.72l-21.87-5.26c1.96-10.09 7.22-18.12 15.77-24.08 8.56-5.94 19.07-8.92 31.55-8.92zm-10.93 93.79c9.11 0 16.82-3.05 23.13-9.15 6.31-6.1 9.46-13.21 9.46-21.35v-5.89c-1.68 2.81-5.75 4.56-12.2 5.26l-20.4 2.52c-5.33.7-9.57 2.28-12.73 4.73-3.15 2.46-4.73 5.78-4.73 9.99s1.58 7.57 4.73 10.09c3.17 2.54 7.41 3.8 12.74 3.8zM1345.61 121.5V91.01h22.08v95.9c0 15.84-5.46 29.09-16.4 39.75-10.94 10.65-24.47 15.98-40.59 15.98-11.36 0-21.48-2.73-30.39-8.2-8.91-5.47-15.6-12.83-20.08-22.08l19.97-9.89c2.95 6.17 7.05 11.04 12.3 14.62 5.26 3.58 11.32 5.36 18.19 5.36 9.81 0 18.09-3.4 24.82-10.2 6.73-6.8 10.1-15.25 10.1-25.34v-21.03c-3.51 9.82-9.01 17.67-16.51 23.55-7.5 5.89-16.23 8.83-26.18 8.83-13.88 0-25.45-5.22-34.7-15.67-9.25-10.44-13.88-23.45-13.88-39.01 0-15.56 4.63-28.56 13.88-39.01 9.26-10.44 20.82-15.67 34.7-15.67 9.95 0 18.72 2.94 26.28 8.83 7.58 5.9 13.04 13.82 16.41 23.77zm-34.7 56.58c9.95 0 18.22-3.29 24.82-9.88 6.59-6.59 9.88-14.79 9.88-24.61 0-9.81-3.29-17.98-9.88-24.5-6.59-6.52-14.86-9.78-24.82-9.78-9.54 0-17.56 3.3-24.08 9.89-6.52 6.59-9.78 14.72-9.78 24.39 0 9.82 3.26 18.02 9.78 24.61 6.52 6.58 14.54 9.88 24.08 9.88zM1444.24 88.91c17.24 0 31.26 6.17 42.06 18.51 10.79 12.34 15.21 27.27 13.25 44.8h-88.96c1.54 8.69 5.54 15.74 11.99 21.13 6.44 5.4 14.23 8.1 23.34 8.1 7.01 0 13.28-1.72 18.82-5.15 5.54-3.43 9.85-8.1 12.94-13.99l18.51 8.2c-4.77 9.12-11.57 16.4-20.4 21.87-8.83 5.47-19 8.2-30.49 8.2-16.12 0-29.65-5.33-40.59-15.98-10.94-10.65-16.41-23.9-16.41-39.75 0-15.84 5.36-29.13 16.09-39.85 10.72-10.73 24-16.09 39.85-16.09zm0 19.13c-8.13 0-15.18 2.49-21.14 7.46-5.96 4.98-9.92 11.46-11.88 19.45h66.03c-1.83-7.99-5.72-14.48-11.67-19.45-5.96-4.96-13.07-7.46-21.34-7.46zM80.33 73.92H0v32.64l83.36 69.66h83.35v-30.25zM0 176.22h83.36v73.52H0zM262.99 55.76v18.16H80.33L0 18.13V0h184.25z"></path></svg>